<svg id="Layer_5" enable-background="new 0 0 64 64" height="512" viewBox="0 0 64 64" width="512" xmlns="http://www.w3.org/2000/svg"><g><g><path d="m22.343 9h-2.687c-3.67 0-6.656 2.986-6.656 6.657 0 1.152.301 2.291.871 3.292l.24.422c.265-.795 1.006-1.371 1.889-1.371h1.277c.346-.595.984-1 1.723-1 1.315.658 2.766 1 4.236 1h1.764 1c.883 0 1.624.576 1.889 1.371l.24-.421c.57-1.001.871-2.14.871-3.292 0-3.672-2.986-6.658-6.657-6.658z" fill="#f0bc5e"/></g><g><path d="m43 23c-.718 0-1.425.042-2.124.116.074-.702.124-1.408.124-2.116 0-11.028-8.972-20-20-20s-20 8.972-20 20 8.972 20 20 20c.708 0 1.414-.049 2.116-.123-.074.698-.116 1.406-.116 2.123 0 11.028 8.972 20 20 20s20-8.972 20-20-8.972-20-20-20zm-22 16c-9.925 0-18-8.075-18-18s8.075-18 18-18 18 8.075 18 18c0 .821-.072 1.639-.182 2.447-.722.154-1.426.355-2.117.585.191-.995.299-2.008.299-3.032 0-8.822-7.178-16-16-16s-16 7.178-16 16 7.178 16 16 16c1.024 0 2.036-.108 3.032-.299-.23.691-.43 1.395-.585 2.116-.809.11-1.626.183-2.447.183zm3.959-4.575c-1.281.377-2.61.575-3.959.575-3.891 0-7.413-1.598-9.952-4.168.182-1.243 1.103-2.246 2.358-2.5l3.693-.749c.23-.066.448-.158.659-.261l3.242 4.352 3.249-4.361c.231.114.471.216.729.289l3.616.73c.219.044.426.119.627.209-1.758 1.676-3.204 3.668-4.262 5.884zm-5.498-8.693c.488.16.999.268 1.539.268.541 0 1.052-.108 1.54-.268.056.097.116.192.181.284l-1.721 2.31-1.72-2.308c.064-.093.124-.188.181-.286zm4.539-4.732c0 1.654-1.346 3-3 3s-3-1.346-3-3v-2c0-.486.349-.893.809-.982 1.38.643 2.905.982 4.427.982h.764zm6.831 6.164c-.552-.382-1.173-.658-1.842-.792l-3.54-.712c-.502-.143-.914-.479-1.17-.917.548-.481.999-1.067 1.296-1.743h.425c1.654 0 3-1.346 3-3s-1.346-3-3-3h-1-1.764c-1.308 0-2.618-.309-3.789-.895l-.211-.105h-.236c-.883 0-1.67.391-2.22 1h-.78c-1.654 0-3 1.346-3 3s1.346 3 3 3h.424c.297.677.749 1.263 1.297 1.744-.252.436-.648.768-1.095.897l-3.616.73c-1.553.313-2.792 1.319-3.461 2.658-1.6-2.276-2.549-5.041-2.549-8.029 0-7.72 6.28-14 14-14s14 6.28 14 14c0 1.351-.201 2.68-.578 3.961-1.278.61-2.479 1.348-3.591 2.203zm-4.831-8.164c.551 0 1 .449 1 1s-.449 1-1 1zm-10 2c-.551 0-1-.449-1-1s.449-1 1-1zm27 40c-9.925 0-18-8.075-18-18s8.075-18 18-18 18 8.075 18 18-8.075 18-18 18z"/><path d="m57.562 27.223 1.967-.364c-.132-.709-.293-1.422-.479-2.118l-1.932.518c.173.645.322 1.306.444 1.964z"/><path d="m42 10c.866 0 1.641-.374 2.19-.964 5.708 3.041 10.178 8.204 12.331 14.297l1.886-.666c-2.337-6.614-7.21-12.21-13.426-15.473.004-.065.019-.128.019-.194 0-1.654-1.346-3-3-3s-3 1.346-3 3 1.346 3 3 3zm0-4c.551 0 1 .449 1 1s-.449 1-1 1-1-.449-1-1 .449-1 1-1z"/><path d="m6.438 36.777-1.967.364c.132.709.293 1.422.479 2.118l1.932-.518c-.173-.645-.322-1.306-.444-1.964z"/><path d="m22 54c-.866 0-1.641.374-2.19.964-5.707-3.041-10.177-8.204-12.331-14.297l-1.886.666c2.337 6.614 7.21 12.21 13.426 15.473-.004.065-.019.128-.019.194 0 1.654 1.346 3 3 3s3-1.346 3-3-1.346-3-3-3zm0 4c-.551 0-1-.449-1-1s.449-1 1-1 1 .449 1 1-.449 1-1 1z"/></g><g><path d="m54.121 34.879c-.697-.698-1.678-1.009-2.682-.828-.625.113-1.188.456-1.637.905l-11.802 11.801-3.802-3.802c-.449-.449-1.012-.792-1.637-.905-1.004-.181-1.985.13-2.682.828-.698.697-1.009 1.678-.828 2.682.113.625.456 1.188.905 1.637l5.923 5.923c.562.564 1.325.88 2.121.88.796 0 1.559-.316 2.121-.879l13.923-13.923c.449-.449.792-1.012.905-1.637.182-1.004-.13-1.985-.828-2.682z" fill="#f0bc5e"/></g></g></svg>